<svg width="27" height="8" viewBox="0 0 27 8" fill="none" xmlns="http://www.w3.org/2000/svg">
<path d="M7.4375 -2.38419e-07V8H5.625L2.73438 3.79687H2.6875V8H0.515625V-2.38419e-07H2.35938L5.20313 4.1875H5.26563V-2.38419e-07H7.4375ZM8.46484 8V-2.38419e-07H14.2305V1.75H10.6367V3.125H13.9336V4.875H10.6367V6.25H14.2148V8H8.46484ZM17.3389 8L14.9795 -2.38419e-07H17.4014L18.4951 4.92187H18.5576L19.8545 -2.38419e-07H21.7607L23.0576 4.9375H23.1201L24.2139 -2.38419e-07H26.6357L24.2764 8H22.1982L20.8389 3.53125H20.7764L19.417 8H17.3389Z" fill="white"/>
</svg>
